<?xml version="1.0" encoding="UTF-8" standalone="no"?>
<!-- Created with Inkscape (http://www.inkscape.org/) -->

<svg
   width="512"
   height="512"
   viewBox="0 0 512 512"
   version="1.1"
   id="svg5"
   xml:space="preserve"
   inkscape:version="1.2.2 (b0a8486541, 2022-12-01)"
   sodipodi:docname="work-in-progress.svg"
   xmlns:inkscape="http://www.inkscape.org/namespaces/inkscape"
   xmlns:sodipodi="http://sodipodi.sourceforge.net/DTD/sodipodi-0.dtd"
   xmlns:xlink="http://www.w3.org/1999/xlink"
   xmlns="http://www.w3.org/2000/svg"
   xmlns:svg="http://www.w3.org/2000/svg"><sodipodi:namedview
     id="namedview7"
     pagecolor="#ffffff"
     bordercolor="#666666"
     borderopacity="1.0"
     inkscape:showpageshadow="2"
     inkscape:pageopacity="0.0"
     inkscape:pagecheckerboard="0"
     inkscape:deskcolor="#d1d1d1"
     inkscape:document-units="px"
     showgrid="false"
     inkscape:zoom="0.70710678"
     inkscape:cx="-109.60155"
     inkscape:cy="251.73001"
     inkscape:window-width="1920"
     inkscape:window-height="1015"
     inkscape:window-x="0"
     inkscape:window-y="28"
     inkscape:window-maximized="1"
     inkscape:current-layer="layer1" /><defs
     id="defs2"><linearGradient
       inkscape:collect="always"
       id="linearGradient2775"><stop
         style="stop-color:#ffb300;stop-opacity:1;"
         offset="0"
         id="stop2771" /><stop
         style="stop-color:#d84315;stop-opacity:1;"
         offset="1"
         id="stop2773" /></linearGradient><linearGradient
       inkscape:collect="always"
       id="linearGradient1315"><stop
         style="stop-color:#ed2839;stop-opacity:1;"
         offset="0"
         id="stop1311" /><stop
         style="stop-color:#f64a8a;stop-opacity:1;"
         offset="1"
         id="stop1313" /></linearGradient><inkscape:path-effect
       effect="bspline"
       id="path-effect458"
       is_visible="true"
       lpeversion="1"
       weight="33.333333"
       steps="2"
       helper_size="0"
       apply_no_weight="true"
       apply_with_weight="true"
       only_selected="false" /><inkscape:path-effect
       effect="bspline"
       id="path-effect354"
       is_visible="true"
       lpeversion="1"
       weight="33.333333"
       steps="2"
       helper_size="0"
       apply_no_weight="true"
       apply_with_weight="true"
       only_selected="false" /><linearGradient
       inkscape:collect="always"
       xlink:href="#linearGradient1315"
       id="linearGradient1317"
       x1="120.80782"
       y1="142.90128"
       x2="361.79181"
       y2="402.92847"
       gradientUnits="userSpaceOnUse" /><linearGradient
       inkscape:collect="always"
       xlink:href="#linearGradient2775"
       id="linearGradient2777"
       x1="290.51083"
       y1="113.89882"
       x2="472.36337"
       y2="411.1882"
       gradientUnits="userSpaceOnUse" /></defs><g
     inkscape:label="Layer 1"
     inkscape:groupmode="layer"
     id="layer1"><path
       id="path29640"
       style="fill:url(#linearGradient1317);fill-opacity:1;stroke:none;stroke-width:2.64885;stroke-linecap:butt;stroke-linejoin:bevel;stroke-miterlimit:10;stroke-opacity:1"
       inkscape:transform-center-y="1.145806"
       d="m 82.439601,109.07153 -30.196772,33.82749 212.305361,0.007 V 109.079 Z m -30.196772,56.81355 15.164306,39.5068 15.164307,39.50681 15.166842,-39.50681 15.164306,-39.5068 H 82.571442 Z m 60.659761,0 15.16431,39.5068 15.1643,39.50681 15.16431,-39.50681 15.16431,-39.5068 H 143.2312 Z m 60.65723,0 15.1643,39.5068 15.16431,39.50681 15.16684,-39.50681 15.16431,-39.5068 h -30.33115 z m 60.65976,0 15.16431,39.5068 15.1643,39.50681 v -79.01361 z m 30.32861,79.01361 h -30.32861 -30.33115 l 15.16684,39.50935 15.16431,39.50681 15.16431,-39.50681 z m -30.32861,79.01616 15.16431,39.50681 15.1643,39.50681 V 323.91485 Z M 203.88843,244.89869 H 173.55982 143.2312 l 15.16431,39.50935 15.16431,39.50681 15.1643,-39.50681 z" /><path
       id="path611"
       style="stroke-width:16.3249;fill-opacity:1;fill:url(#linearGradient2777)"
       d="M 290.51082,109.07913 V 174.378 h 102.13354 l -11.67065,-52.51645 c -1.66024,-7.46931 -8.28487,-12.78243 -15.93633,-12.78242 z m 0,97.94978 v 65.29887 h 123.90081 l -14.51151,-65.29887 z m 0,97.94977 v 97.94978 H 459.75717 V 370.27757 H 436.1789 l -14.51151,-65.29889 z" /></g></svg>
